<?xml version="1.0" encoding="UTF-8" standalone="no"?>
<svg width="1332px" height="816px" viewBox="0 0 1332 816" version="1.1" xmlns="http://www.w3.org/2000/svg" xmlns:xlink="http://www.w3.org/1999/xlink" xmlns:sketch="http://www.bohemiancoding.com/sketch/ns">
    <!-- Generator: Sketch 3.3.1 (12002) - http://www.bohemiancoding.com/sketch -->
    <title>hero img</title>
    <desc>Created with Sketch.</desc>
    <defs>
        <linearGradient x1="27.0876025%" y1="-4.8329014%" x2="102.537367%" y2="94.6374759%" id="linearGradient-1">
            <stop stop-color="#FFFFFF" offset="0%"></stop>
            <stop stop-color="#E1E1E1" offset="100%"></stop>
        </linearGradient>
        <linearGradient x1="90.5566466%" y1="52.422355%" x2="-35.1317097%" y2="107.81334%" id="linearGradient-2">
            <stop stop-color="#FFFFFF" offset="0%"></stop>
            <stop stop-color="#D5D5D5" offset="100%"></stop>
        </linearGradient>
    </defs>
    <g id="melody" stroke="none" stroke-width="1" fill="none" fill-rule="evenodd" sketch:type="MSPage">
        <g id="hero-img" sketch:type="MSLayerGroup">
            <circle id="Oval-13" fill="url(#linearGradient-1)" sketch:type="MSShapeGroup" cx="893.45" cy="500.45" r="315.45"></circle>
            <circle id="Oval-14" fill="url(#linearGradient-2)" sketch:type="MSShapeGroup" cx="191.909456" cy="191.904" r="191.904"></circle>
            <g id="Group" transform="translate(86.000000, 118.000000)" sketch:type="MSShapeGroup">
                <path d="M845.053225,59.9470726 L966.053225,26.5143951 L929.314201,144.514395 L845.053225,59.9470726 Z" id="Rectangle-72" fill="#E7E879" transform="translate(905.617220, 85.617220) rotate(-45.000000) translate(-905.617220, -85.617220) "></path>
                <path d="M945.09203,84.3488691 L1001.09203,68.7658414 L984.088845,123.765841 L945.09203,84.3488691 Z" id="Rectangle-72" fill="#E7E879" transform="translate(973.020827, 96.020827) rotate(-45.000000) translate(-973.020827, -96.020827) "></path>
                <path d="M768.001977,118 L793.998023,118 C797.312823,118 800,115.313708 800,112 C800,108.686292 797.312823,106 793.998023,106 L768.001977,106 C764.687177,106 762,108.686292 762,112 C762,115.313708 764.687177,118 768.001977,118 L768.001977,118 Z" id="Shape" fill="#81BF63"></path>
                <rect id="Rectangle-30" fill="#E7E879" transform="translate(889.494014, 161.964096) rotate(-180.000000) translate(-889.494014, -161.964096) " x="856" y="156" width="67" height="12" rx="16"></rect>
                <path d="M830.985392,116 L987.014608,116 C990.320249,116 993,113.313708 993,110 C993,106.686292 990.320249,104 987.014608,104 L830.985392,104 C827.679751,104 825,106.686292 825,110 C825,113.313708 827.679751,116 830.985392,116 L830.985392,116 Z" id="Shape" fill="#55B36C"></path>
                <path d="M963.955603,116 L1017.0444,116 C1020.33359,116 1023,113.313708 1023,110 C1023,106.686292 1020.33359,104 1017.0444,104 L963.955603,104 C960.666414,104 958,106.686292 958,110 C958,113.313708 960.666414,116 963.955603,116 L963.955603,116 Z" id="Shape" fill="#E7E879"></path>
                <path d="M656.968006,118 L728.031994,118 C731.328033,118 734,115.313708 734,112 C734,108.686292 731.328033,106 728.031994,106 L656.968006,106 C653.671967,106 651,108.686292 651,112 C651,115.313708 653.671967,118 656.968006,118 L656.968006,118 Z" id="Shape" fill="#E7E879"></path>
                <path d="M475.998812,119 L664.001188,119 C667.31424,119 670,116.313708 670,113 C670,109.686292 667.31424,107 664.001188,107 L475.998812,107 C472.68576,107 470,109.686292 470,113 C470,116.313708 472.68576,119 475.998812,119 L475.998812,119 Z" id="Shape" fill="#88C8AB"></path>
                <path d="M1036.2194,142.411612 L1088.2194,134.48425 L1081.50444,187.48425 L1036.2194,142.411612 Z" id="Rectangle-72" fill="#88C8AB" transform="translate(1062.050456, 161.050456) rotate(-45.000000) translate(-1062.050456, -161.050456) "></path>
                <path d="M1083.01009,117 L1239.98991,117 C1243.30919,117 1246,114.313708 1246,111 C1246,107.686292 1243.30919,105 1239.98991,105 L1083.01009,105 C1079.69081,105 1077,107.686292 1077,111 C1077,114.313708 1079.69081,117 1083.01009,117 L1083.01009,117 Z" id="Shape" fill="#81BF63"></path>
                <rect id="Rectangle-30" fill="#50B584" transform="translate(1060.140953, 161.964096) rotate(-180.000000) translate(-1060.140953, -161.964096) " x="988" y="156" width="144" height="12" rx="16"></rect>
                <rect id="Rectangle-30" fill="#E7E879" transform="translate(596.494014, 161.964096) rotate(-180.000000) translate(-596.494014, -161.964096) " x="563" y="156" width="67" height="12" rx="16"></rect>
                <path d="M595.999873,169 L742.000127,169 C745.313765,169 748,166.313708 748,163 C748,159.686292 745.313765,157 742.000127,157 L595.999873,157 C592.686235,157 590,159.686292 590,163 C590,166.313708 592.686235,169 595.999873,169 L595.999873,169 Z" id="Shape" fill="#81BF63"></path>
                <rect id="Rectangle-30" fill="#88C8AB" transform="translate(861.140953, 211.964096) rotate(-180.000000) translate(-861.140953, -211.964096) " x="789" y="206" width="144" height="12" rx="16"></rect>
                <path d="M559.803588,180.117402 L619.986509,191.283407 L629.803588,245.117402 L559.803588,180.117402 Z" id="Rectangle-72" fill="#81BF63" transform="translate(594.664111, 212.664111) rotate(-45.000000) translate(-594.664111, -212.664111) "></path>
                <rect id="Rectangle-30" fill="#E7E879" transform="translate(613.883909, 211.964096) rotate(-180.000000) translate(-613.883909, -211.964096) " x="495" y="206" width="238" height="12" rx="16"></rect>
                <rect id="Rectangle-30" fill="#E7E879" transform="translate(933.494014, 211.964096) rotate(-180.000000) translate(-933.494014, -211.964096) " x="900" y="206" width="67" height="12" rx="16"></rect>
                <path d="M52.9913876,276 L112.008612,276 C115.317564,276 118,273.313708 118,270 C118,266.686292 115.317564,264 112.008612,264 L52.9913876,264 C49.6824356,264 47,266.686292 47,270 C47,273.313708 49.6824356,276 52.9913876,276 L52.9913876,276 Z" id="Shape" fill="#81BF63"></path>
                <path d="M87.9697759,276 L163.030224,276 C166.32724,276 169,273.313708 169,270 C169,266.686292 166.32724,264 163.030224,264 L87.9697759,264 C84.6727597,264 82,266.686292 82,270 C82,273.313708 84.6727597,276 87.9697759,276 L87.9697759,276 Z" id="Shape" fill="#50B584"></path>
                <path d="M293.992551,274 L522.007449,274 C525.317043,274 528,271.313708 528,268 C528,264.686292 525.317043,262 522.007449,262 L293.992551,262 C290.682957,262 288,264.686292 288,268 C288,271.313708 290.682957,274 293.992551,274 L293.992551,274 Z" id="Shape" fill="#81BF63"></path>
                <path d="M958.046547,73 L962.953453,73 C966.292869,73 969,70.3137085 969,67 C969,63.6862915 966.292869,61 962.953453,61 L958.046547,61 C954.707131,61 952,63.6862915 952,67 C952,70.3137085 954.707131,73 958.046547,73 L958.046547,73 Z" id="Shape" fill="#50B584"></path>
                <path d="M161.019875,325 L276.980125,325 C280.30481,325 283,322.313708 283,319 C283,315.686292 280.30481,313 276.980125,313 L161.019875,313 C157.69519,313 155,315.686292 155,319 C155,322.313708 157.69519,325 161.019875,325 L161.019875,325 Z" id="Shape" fill="#50B584"></path>
                <path d="M733.006344,73 L857.993656,73 C861.310868,73 864,70.3137085 864,67 C864,63.6862915 861.310868,61 857.993656,61 L733.006344,61 C729.689132,61 727,63.6862915 727,67 C727,70.3137085 729.689132,73 733.006344,73 L733.006344,73 Z" id="Shape" fill="#50B584"></path>
                <path d="M990.988862,73 L1051.01114,73 C1054.3187,73 1057,70.3137085 1057,67 C1057,63.6862915 1054.3187,61 1051.01114,61 L990.988862,61 C987.681305,61 985,63.6862915 985,67 C985,70.3137085 987.681305,73 990.988862,73 L990.988862,73 Z" id="Shape" fill="#88C8AB"></path>
                <path d="M391.998371,325 L480.001629,325 C483.314438,325 486,322.313708 486,319 C486,315.686292 483.314438,313 480.001629,313 L391.998371,313 C388.685562,313 386,315.686292 386,319 C386,322.313708 388.685562,325 391.998371,325 L391.998371,325 Z" id="Shape" fill="#57C0C7"></path>
                <path d="M547,324 L663.999998,324 C667.313706,324 669.999998,321.313708 669.999998,318 C669.999998,314.686292 667.313706,312 663.999998,312 L547,312 C543.686292,312 541,314.686292 541,318 C541,321.313708 543.686292,324 547,324 L547,324 Z" id="Shape" fill="#50B584"></path>
                <path d="M269.988862,325 L330.011138,325 C333.318695,325 336,322.313708 336,319 C336,315.686292 333.318695,313 330.011138,313 L269.988862,313 C266.681305,313 264,315.686292 264,319 C264,322.313708 266.681305,325 269.988862,325 L269.988862,325 Z" id="Shape" fill="#81BF63"></path>
                <path d="M187.988625,382 L246.011375,382 C249.318801,382 252,379.313708 252,376 C252,372.686292 249.318801,370 246.011375,370 L187.988625,370 C184.681199,370 182,372.686292 182,376 C182,379.313708 184.681199,382 187.988625,382 L187.988625,382 Z" id="Shape" fill="#4AA6AC"></path>
                <path d="M106.098029,382 L123.901971,382 C127.26982,382 130,379.313708 130,376 C130,372.686292 127.26982,370 123.901971,370 L106.098029,370 C102.73018,370 100,372.686292 100,376 C100,379.313708 102.73018,382 106.098029,382 L106.098029,382 Z" id="Shape" fill="#81BF63"></path>
                <path d="M272.993444,427 L368.006556,427 C371.316644,427 374,424.313708 374,421 C374,417.686292 371.316644,415 368.006556,415 L272.993444,415 C269.683356,415 267,417.686292 267,421 C267,424.313708 269.683356,427 272.993444,427 L272.993444,427 Z" id="Shape" fill="#57C0C7"></path>
                <path d="M243.001977,382 L268.998023,382 C272.312823,382 275,379.313708 275,376 C275,372.686292 272.312823,370 268.998023,370 L243.001977,370 C239.687177,370 237,372.686292 237,376 C237,379.313708 239.687177,382 243.001977,382 L243.001977,382 Z" id="Shape" fill="#E7E879"></path>
                <path d="M343.001977,382 L368.998023,382 C372.312823,382 375,379.313708 375,376 C375,372.686292 372.312823,370 368.998023,370 L343.001977,370 C339.687177,370 337,372.686292 337,376 C337,379.313708 339.687177,382 343.001977,382 L343.001977,382 Z" id="Shape" fill="#81BF63"></path>
                <path d="M408.079923,119 L422.920077,119 C426.277926,119 429,116.313708 429,113 C429,109.686292 426.277926,107 422.920077,107 L408.079923,107 C404.722074,107 402,109.686292 402,113 C402,116.313708 404.722074,119 408.079923,119 L408.079923,119 Z" id="Shape" fill="#E7E879"></path>
                <path d="M343.001977,274 L368.998023,274 C372.312823,274 375,271.313708 375,268 C375,264.686292 372.312823,262 368.998023,262 L343.001977,262 C339.687177,262 337,264.686292 337,268 C337,271.313708 339.687177,274 343.001977,274 L343.001977,274 Z" id="Shape" fill="#E7E879"></path>
                <path d="M680.001977,274 L705.998023,274 C709.312823,274 712,271.313708 712,268 C712,264.686292 709.312823,262 705.998023,262 L680.001977,262 C676.687177,262 674,264.686292 674,268 C674,271.313708 676.687177,274 680.001977,274 L680.001977,274 Z" id="Shape" fill="#81BF63"></path>
                <path d="M395.194608,382 L397.805392,382 C401.22658,382 404,379.313708 404,376 C404,372.686292 401.22658,370 397.805392,370 L395.194608,370 C391.77342,370 389,372.686292 389,376 C389,379.313708 391.77342,382 395.194608,382 L395.194608,382 Z" id="Shape" fill="#88C8AB"></path>
                <rect id="Rectangle-30" fill="#4AA6AC" transform="translate(580.140953, 268.000000) rotate(-180.000000) translate(-580.140953, -268.000000) " x="508" y="262" width="144" height="11.6486531" rx="16"></rect>
                <path d="M172.046547,429 L176.953453,429 C180.292869,429 183,426.313708 183,423 C183,419.686292 180.292869,417 176.953453,417 L172.046547,417 C168.707131,417 166,419.686292 166,423 C166,426.313708 168.707131,429 172.046547,429 L172.046547,429 Z" id="Shape" fill="#E7E879"></path>
                <path d="M5.99946131,429 L146.000539,429 C149.31395,429 152,426.313708 152,423 C152,419.686292 149.31395,417 146.000539,417 L5.99946131,417 C2.68605032,417 0,419.686292 0,423 C0,426.313708 2.68605032,429 5.99946131,429 L5.99946131,429 Z" id="Shape" fill="#57C0C7"></path>
                <path d="M571.958031,71 L627.041969,71 C630.332499,71 633,68.3137085 633,65 C633,61.6862915 630.332499,59 627.041969,59 L571.958031,59 C568.667501,59 566,61.6862915 566,65 C566,68.3137085 568.667501,71 571.958031,71 L571.958031,71 Z" id="Shape" fill="#E7E879"></path>
                <path d="M463.027982,383 L528.972018,383 C532.301181,383 535,380.313708 535,377 C535,373.686292 532.301181,371 528.972018,371 L463.027982,371 C459.698819,371 457,373.686292 457,377 C457,380.313708 459.698819,383 463.027982,383 L463.027982,383 Z" id="Shape" fill="#50B584"></path>
                <path d="M454.001977,383 L479.998023,383 C483.312823,383 486,380.313708 486,377 C486,373.686292 483.312823,371 479.998023,371 L454.001977,371 C450.687177,371 448,373.686292 448,377 C448,380.313708 450.687177,383 454.001977,383 L454.001977,383 Z" id="Shape" fill="#81BF63"></path>
                <circle id="Oval-14" fill="#57C0C7" cx="191" cy="232" r="14"></circle>
                <circle id="Oval-14" fill="#E7E879" cx="317" cy="393" r="12"></circle>
            </g>
            <g id="Group" transform="translate(877.000000, 373.808000)">
                <text id="台灣美樂地" sketch:type="MSTextLayer" font-family="AR UDJingXiHeiB5" font-size="21" font-weight="473" line-spacing="37" letter-spacing="3.56412911" fill="#4A4A4A">
                    <tspan x="0.750653252" y="18.2023819">台灣美樂地</tspan>
                </text>
                <text id="TAIWAN-MELODY" sketch:type="MSTextLayer" font-family="Heiti TC" font-size="21" font-weight="bold" line-spacing="37" letter-spacing="3.56412911" fill="#4A4A4A">
                    <tspan x="1.75065325" y="57.2105452">TAIWAN MELODY</tspan>
                </text>
                <text id="為這片土地，寫一首歌" sketch:type="MSTextLayer" font-family="AR UDJingXiHeiB5" font-size="16" font-weight="420" line-spacing="29" letter-spacing="2.53657317" fill="#4A4A4A">
                    <tspan x="1.75065325" y="134.165924">為這片土地，寫一首歌</tspan>
                </text>
                <g transform="translate(2.000000, 78.192000)" id="Shape" fill="#6C6C6C" sketch:type="MSShapeGroup">
                    <path d="M5.06550311,8 L23.9344969,8 C26.1798123,8 28,6.209139 28,4 C28,1.790861 26.1798123,0 23.9344969,0 L5.06550311,0 C2.82018774,0 1,1.790861 1,4 C1,6.209139 2.82018774,8 5.06550311,8 L5.06550311,8 Z"></path>
                    <path d="M94.0655031,8 L112.934497,8 C115.179812,8 117,6.209139 117,4 C117,1.790861 115.179812,0 112.934497,0 L94.0655031,0 C91.8201877,0 90,1.790861 90,4 C90,6.209139 91.8201877,8 94.0655031,8 L94.0655031,8 Z"></path>
                    <path d="M44,8 C46.209139,8 48,6.209139 48,4 C48,1.790861 46.209139,0 44,0 C41.790861,0 40,1.790861 40,4 C40,6.209139 41.790861,8 44,8 L44,8 Z"></path>
                    <path d="M127.171573,6.82842712 C128.73367,8.39052429 131.26633,8.39052429 132.828427,6.82842712 C134.390524,5.26632996 134.390524,2.73367004 132.828427,1.17157288 C131.26633,-0.390524292 128.73367,-0.390524292 127.171573,1.17157288 C125.609476,2.73367004 125.609476,5.26632996 127.171573,6.82842712 L127.171573,6.82842712 Z"></path>
                </g>
            </g>
        </g>
    </g>
</svg>