<?xml version="1.0" encoding="UTF-8" standalone="no"?>
<svg width="182px" height="55px" viewBox="0 0 182 55" version="1.1" xmlns="http://www.w3.org/2000/svg" xmlns:xlink="http://www.w3.org/1999/xlink" xmlns:sketch="http://www.bohemiancoding.com/sketch/ns">
    <!-- Generator: Sketch 3.3.2 (12043) - http://www.bohemiancoding.com/sketch -->
    <title>logo@3x</title>
    <desc>Created with Sketch.</desc>
    <defs></defs>
    <g id="slice" stroke="none" stroke-width="1" fill="none" fill-rule="evenodd" sketch:type="MSPage">
        <g id="mobile-menu" sketch:type="MSLayerGroup" transform="translate(11.000000, 9.000000)">
            <g id="logo" sketch:type="MSShapeGroup">
                <rect id="Rectangle-30" fill="#E7E879" x="12.64" y="16.7863894" width="24.7533333" height="2.62287335" rx="4.8"></rect>
                <rect id="Rectangle-30" fill="#88C8AB" x="0" y="25.1795841" width="19.2233333" height="2.62287335" rx="4.8"></rect>
                <rect id="Rectangle-30" fill="#E7E879" x="35.8133333" y="25.1795841" width="11.3233333" height="2.62287335" rx="4.8"></rect>
                <rect id="Rectangle-30" fill="#81BF63" x="25.8066667" y="25.1795841" width="10.27" height="2.62287335" rx="4.8"></rect>
                <rect id="Rectangle-30" fill="#E7E879" x="8.16333333" y="0" width="19.2233333" height="2.62287335" rx="4.8"></rect>
                <rect id="Rectangle-30" fill="#E7E879" x="7.11" y="33.5727788" width="7.63666667" height="2.62287335" rx="4.8"></rect>
                <rect id="Rectangle-30-Copy-2" fill="#E7E879" x="30.02" y="33.5727788" width="7.63666667" height="2.62287335" rx="4.8"></rect>
                <rect id="Rectangle-30-Copy-5" fill="#88C8AB" x="19.75" y="0" width="11.3233333" height="2.62287335" rx="4.8"></rect>
                <rect id="Rectangle-30-Copy" fill="#81BF63" x="0" y="8.39319471" width="7.63666667" height="2.62287335" rx="4.8"></rect>
                <rect id="Rectangle-30-Copy-8" fill="#55B36C" x="17.6433333" y="8.39319471" width="29.7566667" height="2.62287335" rx="4.8"></rect>
                <ellipse id="Oval-2" fill="#88C8AB" cx="17.38" cy="34.8842155" rx="1.31666667" ry="1.31143667"></ellipse>
                <ellipse id="Oval-2-Copy" fill="#88C8AB" cx="40.29" cy="34.8842155" rx="1.31666667" ry="1.31143667"></ellipse>
            </g>
            <path d="M65.184,19.502 L73.79,19.502 L73.79,25.014 L73.049,25.014 L73.049,24.208 L65.925,24.208 L65.925,25.014 L65.184,25.014 L65.184,19.502 Z M73.049,20.191 L65.925,20.191 L65.925,23.519 L73.049,23.519 L73.049,20.191 Z M64.95,17.214 C66.1806728,16.0526609 67.3983273,14.6660081 68.603,13.054 L69.227,13.418 C68.1436612,14.8740073 66.9693397,16.2259938 65.704,17.474 C67.9400112,17.3439994 70.4533194,17.2270005 73.244,17.123 C72.6719971,16.3949964 72.0350035,15.6670036 71.333,14.939 L71.931,14.562 C73.2136731,15.9140068 74.3229953,17.2659932 75.259,18.618 L74.609,19.008 C74.3489987,18.6093313 74.0760014,18.215002 73.79,17.825 C70.3319827,17.9203338 67.1816809,18.0936654 64.339,18.345 L64.222,17.565 C64.490668,17.5303332 64.7333322,17.4133343 64.95,17.214 L64.95,17.214 Z M88.74,14.861 L91.392,14.861 L91.392,15.394 L88.74,15.394 L88.74,14.861 Z M88.792,16.083 L91.392,16.083 L91.392,16.616 L88.792,16.616 L88.792,16.083 Z M91.314,17.292 L91.314,19.151 L88.844,19.151 L88.844,17.292 L91.314,17.292 Z M90.781,17.825 L89.377,17.825 L89.377,18.618 L90.781,18.618 L90.781,17.825 Z M91.639,14.172 L88.597,14.172 L88.597,13.639 L89.728,13.639 C89.6586663,13.3963321 89.5763338,13.140668 89.481,12.872 L90.235,12.768 C90.3216671,13.0626681 90.395333,13.3529986 90.456,13.639 L91.639,13.639 L91.639,14.172 Z M84.541,15.121 C84.1076645,14.6963312 83.5833364,14.2370025 82.968,13.743 L83.436,13.223 C84.2333373,13.8730033 84.766332,14.3409986 85.035,14.627 L84.541,15.121 Z M84.476,18.618 C84.0599979,18.1586644 83.553003,17.6646693 82.955,17.136 L83.449,16.642 C84.2203372,17.3440035 84.7359987,17.8466651 84.996,18.15 L84.476,18.618 Z M83.176,24.962 C83.6006688,23.5319929 83.9906649,21.8593429 84.346,19.944 L85.009,20.126 C84.5236642,22.5700122 84.1380014,24.2513287 83.852,25.17 L83.176,24.962 Z M86.153,19.762 L94.005,19.762 L94.005,21.764 L87.362,21.764 L87.219,22.609 L94.356,22.609 L94.356,23.636 C94.356,24.5200044 93.9140044,24.962 93.03,24.962 L89.767,24.962 L89.559,24.273 L92.952,24.273 C93.4026689,24.273 93.628,24.0520022 93.628,23.61 L93.628,23.181 L86.413,23.181 L86.712,21.179 L93.264,21.179 L93.264,20.347 L86.153,20.347 L86.153,19.762 Z M94.798,13.756 C94.1913303,14.7006714 93.5023372,15.6453286 92.731,16.59 C93.1643355,16.529333 93.6409974,16.4773335 94.161,16.434 C94.0656662,16.165332 93.9660005,15.8923347 93.862,15.615 L94.395,15.511 C94.663668,16.1436698 94.8803325,16.7503304 95.045,17.331 L94.434,17.448 C94.3906664,17.2919992 94.3516668,17.1403341 94.317,16.993 C93.4156622,17.0970005 92.5923371,17.2139994 91.847,17.344 L91.626,16.733 C91.8600012,16.672333 92.0549992,16.5423343 92.211,16.343 C92.4883347,15.9963316 92.7699986,15.6280019 93.056,15.238 C92.6139978,15.2813336 92.2066685,15.333333 91.834,15.394 L91.626,14.783 C91.8513345,14.7309997 92.0159995,14.6226675 92.12,14.458 C92.4320016,13.9899977 92.7309986,13.4613363 93.017,12.872 L93.615,13.041 C93.3289986,13.5956694 93.0083351,14.141664 92.653,14.679 C92.9130013,14.6529999 93.1946651,14.6313334 93.498,14.614 C93.7406679,14.2499982 93.9876654,13.8686687 94.239,13.47 L94.798,13.756 Z M91.938,17.695 L92.484,17.721 C92.4579999,18.2756694 92.3713341,18.7999975 92.224,19.294 L91.626,19.19 C91.7993342,18.7653312 91.9033332,18.2670029 91.938,17.695 L91.938,17.695 Z M93.186,19.216 C93.1686666,18.6959974 93.1166671,18.2020023 93.03,17.734 L93.524,17.669 C93.6366672,18.1630025 93.7059999,18.6656641 93.732,19.177 L93.186,19.216 Z M94.46,19.086 C94.399333,18.5833308 94.2996674,18.1066689 94.161,17.656 L94.642,17.539 C94.8066675,18.015669 94.9279996,18.5009975 95.006,18.995 L94.46,19.086 Z M88.363,13.691 C87.7909971,14.6270047 87.1410036,15.5629953 86.413,16.499 C86.8203354,16.4469997 87.2536644,16.3950003 87.713,16.343 C87.6436663,16.0829987 87.5570005,15.8230013 87.453,15.563 L87.999,15.472 C88.2503346,16.0960031 88.4496659,16.7026637 88.597,17.292 L87.973,17.383 C87.9383332,17.2269992 87.9036668,17.0623342 87.869,16.889 C87.0196624,16.9930005 86.2440035,17.1099994 85.542,17.24 L85.334,16.655 C85.5593345,16.5856663 85.7499992,16.447001 85.906,16.239 C86.1486679,15.909665 86.3956654,15.5673351 86.647,15.212 C86.2223312,15.272667 85.8236685,15.3419996 85.451,15.42 L85.23,14.809 C85.23,14.8003333 85.2429999,14.796 85.269,14.796 C85.4510009,14.735333 85.6026661,14.6226675 85.724,14.458 C86.0360016,13.9899977 86.3306653,13.4613363 86.608,12.872 L87.206,13.041 C86.937332,13.5870027 86.6253351,14.128664 86.27,14.666 C86.5126679,14.6313332 86.7813319,14.6010001 87.076,14.575 C87.3100012,14.2196649 87.5483321,13.8383354 87.791,13.431 L88.363,13.691 Z M85.438,17.695 L85.984,17.721 C85.9579999,18.2756694 85.8713341,18.7999975 85.724,19.294 L85.126,19.19 C85.2993342,18.7653312 85.4033332,18.2670029 85.438,17.695 L85.438,17.695 Z M86.634,19.203 C86.634,18.6916641 86.5993337,18.2020023 86.53,17.734 L87.037,17.682 C87.1236671,18.1760025 87.1713333,18.6786641 87.18,19.19 L86.634,19.203 Z M87.856,18.969 C87.8039997,18.5183311 87.7216672,18.0806688 87.609,17.656 L88.09,17.552 C88.2286674,17.9940022 88.3326663,18.4403311 88.402,18.891 L87.856,18.969 Z M114.389,19.424 L102.507,19.424 L102.507,18.748 L108.149,18.748 L108.149,17.344 L103.274,17.344 L103.274,16.668 L108.149,16.668 L108.149,15.212 L102.91,15.212 L102.91,14.523 L106.173,14.523 L105.627,13.171 L106.316,13.002 L106.875,14.523 L110.164,14.523 L110.866,13.067 L111.542,13.184 L110.866,14.523 L114.09,14.523 L114.09,15.212 L108.877,15.212 L108.877,16.668 L113.674,16.668 L113.674,17.344 L108.877,17.344 L108.877,18.748 L114.389,18.748 L114.389,19.424 Z M108.422,21.959 C107.581329,23.5450079 105.627015,24.5373313 102.559,24.936 L102.273,24.221 C105.245682,23.8483315 107.08733,22.9470071 107.798,21.517 L102.559,21.517 L102.559,20.828 L108.045,20.828 C108.105667,20.5766654 108.140333,20.3123347 108.149,20.035 L108.149,19.892 L108.877,19.892 L108.877,20.035 C108.868333,20.3210014 108.842334,20.5853321 108.799,20.828 L114.337,20.828 L114.337,21.517 L108.825,21.517 C110.012339,22.921007 111.93632,23.8396645 114.597,24.273 L114.259,25.001 C111.641654,24.5243309 109.696006,23.5103411 108.422,21.959 L108.422,21.959 Z M122.111,20.906 L127.649,20.906 L127.649,19.632 L126.349,19.632 L126.349,14.12 L127.506,14.12 L127.74,12.963 L128.481,13.08 L128.26,14.12 L129.625,14.12 L129.625,19.632 L128.377,19.632 L128.377,20.906 L133.837,20.906 L133.837,21.634 L128.819,21.634 C130.413675,22.6306717 132.116658,23.3803308 133.928,23.883 L133.655,24.598 C131.774324,24.0086637 130.015008,23.1723388 128.377,22.089 L128.377,25.066 L127.649,25.066 L127.649,22.05 C126.045659,23.2633394 124.277676,24.1213308 122.345,24.624 L122.033,23.948 C123.905009,23.4973311 125.599326,22.7260055 127.116,21.634 L122.111,21.634 L122.111,20.906 Z M127.038,16.512 L128.936,16.512 L128.936,14.809 L127.038,14.809 L127.038,16.512 Z M128.936,17.201 L127.038,17.201 L127.038,18.943 L128.936,18.943 L128.936,17.201 Z M126.024,14.458 C125.28733,15.9400074 124.429338,17.4176593 123.45,18.891 C123.970003,18.830333 124.53333,18.7653337 125.14,18.696 C125.070666,18.2886646 124.984001,17.8423358 124.88,17.357 L125.439,17.214 C125.707668,18.1933382 125.889666,19.0946626 125.985,19.918 L125.322,20.061 C125.304667,19.8183321 125.278667,19.562668 125.244,19.294 C124.273328,19.4240007 123.385004,19.5669992 122.579,19.723 L122.319,19.073 C122.579001,19.0036663 122.773999,18.865001 122.904,18.657 C123.337335,17.99833 123.766331,17.2920038 124.191,16.538 C123.618997,16.6073337 123.094669,16.6809996 122.618,16.759 L122.384,16.109 C122.392667,16.1003333 122.41,16.096 122.436,16.096 C122.644001,16.035333 122.791333,15.9226675 122.878,15.758 C123.302669,14.9606627 123.696998,14.0680049 124.061,13.08 L124.711,13.249 C124.355665,14.1503378 123.931002,15.0603287 123.437,15.979 C123.775002,15.9356665 124.143331,15.9010001 124.542,15.875 C124.836668,15.3463307 125.122665,14.7916696 125.4,14.211 L126.024,14.458 Z M133.642,14.354 C132.90533,15.818674 132.047338,17.2876593 131.068,18.761 C131.596669,18.6916663 132.168664,18.6310003 132.784,18.579 C132.688666,18.1629979 132.576001,17.7253356 132.446,17.266 L133.005,17.11 C133.334335,18.0980049 133.568333,19.0123291 133.707,19.853 L133.044,20.022 C133.009333,19.7619987 132.966,19.4846681 132.914,19.19 C131.917328,19.3026672 131.007337,19.4239994 130.184,19.554 L129.95,18.904 C129.958667,18.8953333 129.976,18.891 130.002,18.891 C130.227334,18.830333 130.400666,18.7003343 130.522,18.501 C130.955335,17.8336633 131.388665,17.1273371 131.822,16.382 C131.232664,16.442667 130.686669,16.5206662 130.184,16.616 L129.95,15.953 C129.958667,15.9443333 129.976,15.94 130.002,15.94 C130.210001,15.879333 130.361666,15.7666675 130.457,15.602 C130.855669,14.8306628 131.228332,13.9553382 131.575,12.976 L132.238,13.132 C131.891332,14.0246711 131.479669,14.9216622 131.003,15.823 C131.367002,15.7796665 131.761331,15.7406668 132.186,15.706 C132.463335,15.1946641 132.740665,14.6616694 133.018,14.107 L133.642,14.354 Z M142.924,22.687 L142.924,17.175 L141.507,17.175 L141.507,16.434 L142.924,16.434 L142.924,13.028 L143.665,13.028 L143.665,16.434 L144.965,16.434 L144.965,17.175 L143.665,17.175 L143.665,22.557 C144.185003,22.4443328 144.691998,22.3316672 145.186,22.219 L145.251,22.921 C144.080994,23.250335 142.789674,23.5276655 141.377,23.753 L141.26,22.999 C141.823336,22.8949995 142.377997,22.7910005 142.924,22.687 L142.924,22.687 Z M152.583,23.467 L152.583,22.076 L153.311,22.271 L153.311,23.402 C153.311,24.2946711 152.899337,24.741 152.076,24.741 L147.474,24.741 C146.641996,24.741 146.226,24.3250042 146.226,23.493 L146.226,17.721 L145.069,18.072 L145.069,17.305 L146.226,16.954 L146.226,14.042 L146.967,14.042 L146.967,16.733 L149.073,16.122 L149.073,13.08 L149.814,13.08 L149.814,15.888 L152.661,15.056 L152.661,19.827 C152.661,20.5983372 152.275337,20.984 151.504,20.984 L150.854,20.984 L150.646,20.243 L151.517,20.243 C151.785668,20.243 151.92,20.108668 151.92,19.84 L151.92,16.057 L149.814,16.668 L149.814,22.167 L149.073,22.167 L149.073,16.876 L146.967,17.5 L146.967,23.506 C146.967,23.835335 147.131665,24 147.461,24 L152.05,24 C152.405335,24 152.583,23.8223351 152.583,23.467 L152.583,23.467 Z" id="台灣美樂地" fill="#4A4A4A" sketch:type="MSShapeGroup"></path>
        </g>
    </g>
</svg>