<?xml version="1.0" encoding="UTF-8" standalone="no"?>
<svg width="182px" height="55px" viewBox="0 0 182 55" version="1.1" xmlns="http://www.w3.org/2000/svg" xmlns:xlink="http://www.w3.org/1999/xlink" xmlns:sketch="http://www.bohemiancoding.com/sketch/ns">
    <!-- Generator: Sketch 3.3.2 (12043) - http://www.bohemiancoding.com/sketch -->
    <title>logo</title>
    <desc>Created with Sketch.</desc>
    <defs></defs>
    <g id="Page-1" stroke="none" stroke-width="1" fill="none" fill-rule="evenodd" sketch:type="MSPage">
        <g id="logo-+-Group" sketch:type="MSLayerGroup" transform="translate(10.000000, 9.000000)">
            <g id="logo" transform="translate(65.000000, 12.000000)" fill="#4A4A4A" sketch:type="MSShapeGroup">
                <g id="slice">
                    <g id="mobile-menu">
                        <path d="M1.184,7.502 L9.79,7.502 L9.79,13.014 L9.049,13.014 L9.049,12.208 L1.925,12.208 L1.925,13.014 L1.184,13.014 L1.184,7.502 L1.184,7.502 Z M9.049,8.191 L1.925,8.191 L1.925,11.519 L9.049,11.519 L9.049,8.191 L9.049,8.191 Z M0.95,5.214 C2.1806728,4.0526609 3.3983273,2.6660081 4.603,1.054 L5.227,1.418 C4.1436612,2.8740073 2.9693397,4.2259938 1.704,5.474 C3.9400112,5.3439994 6.4533194,5.2270005 9.244,5.123 C8.6719971,4.3949964 8.0350035,3.6670036 7.333,2.939 L7.931,2.562 C9.2136731,3.9140068 10.3229953,5.2659932 11.259,6.618 L10.609,7.008 C10.3489987,6.6093313 10.0760014,6.215002 9.79,5.825 C6.3319827,5.9203338 3.1816809,6.0936654 0.339,6.345 L0.222,5.565 C0.490668,5.5303332 0.7333322,5.4133343 0.95,5.214 L0.95,5.214 L0.95,5.214 Z M24.74,2.861 L27.392,2.861 L27.392,3.394 L24.74,3.394 L24.74,2.861 L24.74,2.861 Z M24.792,4.083 L27.392,4.083 L27.392,4.616 L24.792,4.616 L24.792,4.083 L24.792,4.083 Z M27.314,5.292 L27.314,7.151 L24.844,7.151 L24.844,5.292 L27.314,5.292 L27.314,5.292 Z M26.781,5.825 L25.377,5.825 L25.377,6.618 L26.781,6.618 L26.781,5.825 L26.781,5.825 Z M27.639,2.172 L24.597,2.172 L24.597,1.639 L25.728,1.639 C25.6586663,1.3963321 25.5763338,1.140668 25.481,0.872 L26.235,0.768 C26.3216671,1.0626681 26.395333,1.3529986 26.456,1.639 L27.639,1.639 L27.639,2.172 L27.639,2.172 Z M20.541,3.121 C20.1076645,2.6963312 19.5833364,2.2370025 18.968,1.743 L19.436,1.223 C20.2333373,1.8730033 20.766332,2.3409986 21.035,2.627 L20.541,3.121 L20.541,3.121 Z M20.476,6.618 C20.0599979,6.1586644 19.553003,5.6646693 18.955,5.136 L19.449,4.642 C20.2203372,5.3440035 20.7359987,5.8466651 20.996,6.15 L20.476,6.618 L20.476,6.618 Z M19.176,12.962 C19.6006688,11.5319929 19.9906649,9.8593429 20.346,7.944 L21.009,8.126 C20.5236642,10.5700122 20.1380014,12.2513287 19.852,13.17 L19.176,12.962 L19.176,12.962 Z M22.153,7.762 L30.005,7.762 L30.005,9.764 L23.362,9.764 L23.219,10.609 L30.356,10.609 L30.356,11.636 C30.356,12.5200044 29.9140044,12.962 29.03,12.962 L25.767,12.962 L25.559,12.273 L28.952,12.273 C29.4026689,12.273 29.628,12.0520022 29.628,11.61 L29.628,11.181 L22.413,11.181 L22.712,9.179 L29.264,9.179 L29.264,8.347 L22.153,8.347 L22.153,7.762 L22.153,7.762 Z M30.798,1.756 C30.1913303,2.7006714 29.5023372,3.6453286 28.731,4.59 C29.1643355,4.529333 29.6409974,4.4773335 30.161,4.434 C30.0656662,4.165332 29.9660005,3.8923347 29.862,3.615 L30.395,3.511 C30.663668,4.1436698 30.8803325,4.7503304 31.045,5.331 L30.434,5.448 C30.3906664,5.2919992 30.3516668,5.1403341 30.317,4.993 C29.4156622,5.0970005 28.5923371,5.2139994 27.847,5.344 L27.626,4.733 C27.8600012,4.672333 28.0549992,4.5423343 28.211,4.343 C28.4883347,3.9963316 28.7699986,3.6280019 29.056,3.238 C28.6139978,3.2813336 28.2066685,3.333333 27.834,3.394 L27.626,2.783 C27.8513345,2.7309997 28.0159995,2.6226675 28.12,2.458 C28.4320016,1.9899977 28.7309986,1.4613363 29.017,0.872 L29.615,1.041 C29.3289986,1.5956694 29.0083351,2.141664 28.653,2.679 C28.9130013,2.6529999 29.1946651,2.6313334 29.498,2.614 C29.7406679,2.2499982 29.9876654,1.8686687 30.239,1.47 L30.798,1.756 L30.798,1.756 Z M27.938,5.695 L28.484,5.721 C28.4579999,6.2756694 28.3713341,6.7999975 28.224,7.294 L27.626,7.19 C27.7993342,6.7653312 27.9033332,6.2670029 27.938,5.695 L27.938,5.695 L27.938,5.695 Z M29.186,7.216 C29.1686666,6.6959974 29.1166671,6.2020023 29.03,5.734 L29.524,5.669 C29.6366672,6.1630025 29.7059999,6.6656641 29.732,7.177 L29.186,7.216 L29.186,7.216 Z M30.46,7.086 C30.399333,6.5833308 30.2996674,6.1066689 30.161,5.656 L30.642,5.539 C30.8066675,6.015669 30.9279996,6.5009975 31.006,6.995 L30.46,7.086 L30.46,7.086 Z M24.363,1.691 C23.7909971,2.6270047 23.1410036,3.5629953 22.413,4.499 C22.8203354,4.4469997 23.2536644,4.3950003 23.713,4.343 C23.6436663,4.0829987 23.5570005,3.8230013 23.453,3.563 L23.999,3.472 C24.2503346,4.0960031 24.4496659,4.7026637 24.597,5.292 L23.973,5.383 C23.9383332,5.2269992 23.9036668,5.0623342 23.869,4.889 C23.0196624,4.9930005 22.2440035,5.1099994 21.542,5.24 L21.334,4.655 C21.5593345,4.5856663 21.7499992,4.447001 21.906,4.239 C22.1486679,3.909665 22.3956654,3.5673351 22.647,3.212 C22.2223312,3.272667 21.8236685,3.3419996 21.451,3.42 L21.23,2.809 C21.23,2.8003333 21.2429999,2.796 21.269,2.796 C21.4510009,2.735333 21.6026661,2.6226675 21.724,2.458 C22.0360016,1.9899977 22.3306653,1.4613363 22.608,0.872 L23.206,1.041 C22.937332,1.5870027 22.6253351,2.128664 22.27,2.666 C22.5126679,2.6313332 22.7813319,2.6010001 23.076,2.575 C23.3100012,2.2196649 23.5483321,1.8383354 23.791,1.431 L24.363,1.691 L24.363,1.691 Z M21.438,5.695 L21.984,5.721 C21.9579999,6.2756694 21.8713341,6.7999975 21.724,7.294 L21.126,7.19 C21.2993342,6.7653312 21.4033332,6.2670029 21.438,5.695 L21.438,5.695 L21.438,5.695 Z M22.634,7.203 C22.634,6.6916641 22.5993337,6.2020023 22.53,5.734 L23.037,5.682 C23.1236671,6.1760025 23.1713333,6.6786641 23.18,7.19 L22.634,7.203 L22.634,7.203 Z M23.856,6.969 C23.8039997,6.5183311 23.7216672,6.0806688 23.609,5.656 L24.09,5.552 C24.2286674,5.9940022 24.3326663,6.4403311 24.402,6.891 L23.856,6.969 L23.856,6.969 Z M50.389,7.424 L38.507,7.424 L38.507,6.748 L44.149,6.748 L44.149,5.344 L39.274,5.344 L39.274,4.668 L44.149,4.668 L44.149,3.212 L38.91,3.212 L38.91,2.523 L42.173,2.523 L41.627,1.171 L42.316,1.002 L42.875,2.523 L46.164,2.523 L46.866,1.067 L47.542,1.184 L46.866,2.523 L50.09,2.523 L50.09,3.212 L44.877,3.212 L44.877,4.668 L49.674,4.668 L49.674,5.344 L44.877,5.344 L44.877,6.748 L50.389,6.748 L50.389,7.424 L50.389,7.424 Z M44.422,9.959 C43.581329,11.5450079 41.627015,12.5373313 38.559,12.936 L38.273,12.221 C41.245682,11.8483315 43.08733,10.9470071 43.798,9.517 L38.559,9.517 L38.559,8.828 L44.045,8.828 C44.105667,8.5766654 44.140333,8.3123347 44.149,8.035 L44.149,7.892 L44.877,7.892 L44.877,8.035 C44.868333,8.3210014 44.842334,8.5853321 44.799,8.828 L50.337,8.828 L50.337,9.517 L44.825,9.517 C46.012339,10.921007 47.93632,11.8396645 50.597,12.273 L50.259,13.001 C47.641654,12.5243309 45.696006,11.5103411 44.422,9.959 L44.422,9.959 L44.422,9.959 Z M58.111,8.906 L63.649,8.906 L63.649,7.632 L62.349,7.632 L62.349,2.12 L63.506,2.12 L63.74,0.963 L64.481,1.08 L64.26,2.12 L65.625,2.12 L65.625,7.632 L64.377,7.632 L64.377,8.906 L69.837,8.906 L69.837,9.634 L64.819,9.634 C66.413675,10.6306717 68.116658,11.3803308 69.928,11.883 L69.655,12.598 C67.774324,12.0086637 66.015008,11.1723388 64.377,10.089 L64.377,13.066 L63.649,13.066 L63.649,10.05 C62.045659,11.2633394 60.277676,12.1213308 58.345,12.624 L58.033,11.948 C59.905009,11.4973311 61.599326,10.7260055 63.116,9.634 L58.111,9.634 L58.111,8.906 L58.111,8.906 Z M63.038,4.512 L64.936,4.512 L64.936,2.809 L63.038,2.809 L63.038,4.512 L63.038,4.512 Z M64.936,5.201 L63.038,5.201 L63.038,6.943 L64.936,6.943 L64.936,5.201 L64.936,5.201 Z M62.024,2.458 C61.28733,3.9400074 60.429338,5.4176593 59.45,6.891 C59.970003,6.830333 60.53333,6.7653337 61.14,6.696 C61.070666,6.2886646 60.984001,5.8423358 60.88,5.357 L61.439,5.214 C61.707668,6.1933382 61.889666,7.0946626 61.985,7.918 L61.322,8.061 C61.304667,7.8183321 61.278667,7.562668 61.244,7.294 C60.273328,7.4240007 59.385004,7.5669992 58.579,7.723 L58.319,7.073 C58.579001,7.0036663 58.773999,6.865001 58.904,6.657 C59.337335,5.99833 59.766331,5.2920038 60.191,4.538 C59.618997,4.6073337 59.094669,4.6809996 58.618,4.759 L58.384,4.109 C58.392667,4.1003333 58.41,4.096 58.436,4.096 C58.644001,4.035333 58.791333,3.9226675 58.878,3.758 C59.302669,2.9606627 59.696998,2.0680049 60.061,1.08 L60.711,1.249 C60.355665,2.1503378 59.931002,3.0603287 59.437,3.979 C59.775002,3.9356665 60.143331,3.9010001 60.542,3.875 C60.836668,3.3463307 61.122665,2.7916696 61.4,2.211 L62.024,2.458 L62.024,2.458 Z M69.642,2.354 C68.90533,3.818674 68.047338,5.2876593 67.068,6.761 C67.596669,6.6916663 68.168664,6.6310003 68.784,6.579 C68.688666,6.1629979 68.576001,5.7253356 68.446,5.266 L69.005,5.11 C69.334335,6.0980049 69.568333,7.0123291 69.707,7.853 L69.044,8.022 C69.009333,7.7619987 68.966,7.4846681 68.914,7.19 C67.917328,7.3026672 67.007337,7.4239994 66.184,7.554 L65.95,6.904 C65.958667,6.8953333 65.976,6.891 66.002,6.891 C66.227334,6.830333 66.400666,6.7003343 66.522,6.501 C66.955335,5.8336633 67.388665,5.1273371 67.822,4.382 C67.232664,4.442667 66.686669,4.5206662 66.184,4.616 L65.95,3.953 C65.958667,3.9443333 65.976,3.94 66.002,3.94 C66.210001,3.879333 66.361666,3.7666675 66.457,3.602 C66.855669,2.8306628 67.228332,1.9553382 67.575,0.976 L68.238,1.132 C67.891332,2.0246711 67.479669,2.9216622 67.003,3.823 C67.367002,3.7796665 67.761331,3.7406668 68.186,3.706 C68.463335,3.1946641 68.740665,2.6616694 69.018,2.107 L69.642,2.354 L69.642,2.354 Z M78.924,10.687 L78.924,5.175 L77.507,5.175 L77.507,4.434 L78.924,4.434 L78.924,1.028 L79.665,1.028 L79.665,4.434 L80.965,4.434 L80.965,5.175 L79.665,5.175 L79.665,10.557 C80.185003,10.4443328 80.691998,10.3316672 81.186,10.219 L81.251,10.921 C80.080994,11.250335 78.789674,11.5276655 77.377,11.753 L77.26,10.999 C77.823336,10.8949995 78.377997,10.7910005 78.924,10.687 L78.924,10.687 L78.924,10.687 Z M88.583,11.467 L88.583,10.076 L89.311,10.271 L89.311,11.402 C89.311,12.2946711 88.899337,12.741 88.076,12.741 L83.474,12.741 C82.641996,12.741 82.226,12.3250042 82.226,11.493 L82.226,5.721 L81.069,6.072 L81.069,5.305 L82.226,4.954 L82.226,2.042 L82.967,2.042 L82.967,4.733 L85.073,4.122 L85.073,1.08 L85.814,1.08 L85.814,3.888 L88.661,3.056 L88.661,7.827 C88.661,8.5983372 88.275337,8.984 87.504,8.984 L86.854,8.984 L86.646,8.243 L87.517,8.243 C87.785668,8.243 87.92,8.108668 87.92,7.84 L87.92,4.057 L85.814,4.668 L85.814,10.167 L85.073,10.167 L85.073,4.876 L82.967,5.5 L82.967,11.506 C82.967,11.835335 83.131665,12 83.461,12 L88.05,12 C88.405335,12 88.583,11.8223351 88.583,11.467 L88.583,11.467 L88.583,11.467 Z" id="台灣美樂地"></path>
                    </g>
                </g>
            </g>
            <g id="Group" sketch:type="MSShapeGroup">
                <g id="Line-+-Line-Copy" transform="translate(9.000000, 0.000000)">
                    <path d="M1.5,2.6 L19.5,2.6 C20.2179702,2.6 20.8,2.01797017 20.8,1.3 C20.8,0.582029825 20.2179702,0 19.5,0 L1.5,0 C0.782029825,0 0.2,0.582029825 0.2,1.3 C0.2,2.01797017 0.782029825,2.6 1.5,2.6 L1.5,2.6 Z" id="Shape" fill="#E7E879"></path>
                    <path d="M13,2.6 L21.7999992,2.6 C22.5179694,2.6 23.0999992,2.01797017 23.0999992,1.3 C23.0999992,0.582029825 22.5179694,0 21.7999992,0 L13,0 C12.2820298,0 11.7,0.582029825 11.7,1.3 C11.7,2.01797017 12.2820298,2.6 13,2.6 L13,2.6 Z" id="Shape" fill="#88C8AB"></path>
                </g>
                <g id="Line-+-Line-Copy-2" transform="translate(0.000000, 8.000000)">
                    <path d="M2.3,3.00000014 L7.3,3.00000014 C8.01797021,3.00000014 8.60000007,2.41797029 8.60000007,1.70000007 C8.60000007,0.982029857 8.01797021,0.4 7.3,0.4 L2.3,0.4 C1.58202979,0.4 0.999999928,0.982029857 0.999999928,1.70000007 C0.999999928,2.41797029 1.58202979,3.00000014 2.3,3.00000014 L2.3,3.00000014 Z" id="Shape" fill="#81BF63"></path>
                    <path d="M20,3.00000014 L47.1000004,3.00000014 C47.8179706,3.00000014 48.4000005,2.41797029 48.4000005,1.70000007 C48.4000005,0.982029857 47.8179706,0.4 47.1000004,0.4 L20,0.4 C19.2820298,0.4 18.6999999,0.982029857 18.6999999,1.70000007 C18.6999999,2.41797029 19.2820298,3.00000014 20,3.00000014 L20,3.00000014 Z" id="Shape" fill="#55B36C"></path>
                </g>
                <path d="M14.9,19.4000001 L37.0999989,19.4000001 C37.8179691,19.4000001 38.3999989,18.8179703 38.3999989,18.1000001 C38.3999989,17.3820299 37.8179691,16.8 37.0999989,16.8 L14.9,16.8 C14.1820298,16.8 13.5999999,17.3820299 13.5999999,18.1000001 C13.5999999,18.8179703 14.1820298,19.4000001 14.9,19.4000001 L14.9,19.4000001 Z" id="Shape" fill="#E7E879"></path>
                <g id="Line-Copy-3-+-Line-Copy-5-+-Line-Copy-4" transform="translate(0.000000, 25.000000)">
                    <path d="M2.3,2.80000014 L18.9000004,2.80000014 C19.6179706,2.80000014 20.2000005,2.21797029 20.2000005,1.50000007 C20.2000005,0.782029857 19.6179706,0.2 18.9000004,0.2 L2.3,0.2 C1.58202979,0.2 0.999999928,0.782029857 0.999999928,1.50000007 C0.999999928,2.21797029 1.58202979,2.80000014 2.3,2.80000014 L2.3,2.80000014 Z" id="Shape" fill="#88C8AB"></path>
                    <path d="M38.3,2.80000014 L46.9000004,2.80000014 C47.6179706,2.80000014 48.2000005,2.21797029 48.2000005,1.50000007 C48.2000005,0.782029857 47.6179706,0.2 46.9000004,0.2 L38.3,0.2 C37.5820298,0.2 36.9999999,0.782029857 36.9999999,1.50000007 C36.9999999,2.21797029 37.5820298,2.80000014 38.3,2.80000014 L38.3,2.80000014 Z" id="Shape" fill="#E7E879"></path>
                    <path d="M28.1,2.80000014 L35.7999998,2.80000014 C36.51797,2.80000014 37.0999999,2.21797029 37.0999999,1.50000007 C37.0999999,0.782029857 36.51797,0.2 35.7999998,0.2 L28.1,0.2 C27.3820298,0.2 26.7999999,0.782029857 26.7999999,1.50000007 C26.7999999,2.21797029 27.3820298,2.80000014 28.1,2.80000014 L28.1,2.80000014 Z" id="Shape" fill="#81BF63"></path>
                </g>
                <g transform="translate(8.000000, 33.000000)">
                    <path d="M1.4,3.20000014 L6.4,3.20000014 C7.11797021,3.20000014 7.70000007,2.61797029 7.70000007,1.90000007 C7.70000007,1.18202986 7.11797021,0.6 6.4,0.6 L1.4,0.6 C0.682029786,0.6 0.0999999285,1.18202986 0.0999999285,1.90000007 C0.0999999285,2.61797029 0.682029786,3.20000014 1.4,3.20000014 L1.4,3.20000014 Z" id="Shape" fill="#E7E879"></path>
                    <path d="M24.4,3.20000014 L29.4,3.20000014 C30.1179702,3.20000014 30.7000001,2.61797029 30.7000001,1.90000007 C30.7000001,1.18202986 30.1179702,0.6 29.4,0.6 L24.4,0.6 C23.6820298,0.6 23.0999999,1.18202986 23.0999999,1.90000007 C23.0999999,2.61797029 23.6820298,3.20000014 24.4,3.20000014 L24.4,3.20000014 Z" id="Shape" fill="#E7E879"></path>
                    <ellipse id="Oval-2" fill="#88C8AB" cx="10.38" cy="1.8842155" rx="1.31666667" ry="1.31143667"></ellipse>
                    <ellipse id="Oval-2-Copy" fill="#88C8AB" cx="33.29" cy="1.8842155" rx="1.31666667" ry="1.31143667"></ellipse>
                </g>
            </g>
        </g>
    </g>
</svg>